<?xml version="1.0" encoding="utf-8"?>
<!-- Generator: Adobe Illustrator 18.1.1, SVG Export Plug-In . SVG Version: 6.00 Build 0)  -->
<svg version="1.1"
	 id="svg5345" sodipodi:version="0.32" inkscape:output_extension="org.inkscape.output.svg.inkscape" inkscape:version="0.47 r22583" sodipodi:docname="Karte_A_Noe_WN.svg" xmlns:dc="http://purl.org/dc/elements/1.1/" xmlns:cc="http://creativecommons.org/ns#" xmlns:rdf="http://www.w3.org/1999/02/22-rdf-syntax-ns#" xmlns:inkscape="http://www.inkscape.org/namespaces/inkscape" xmlns:sodipodi="http://sodipodi.sourceforge.net/DTD/sodipodi-0.dtd" xmlns:svg="http://www.w3.org/2000/svg"
	 xmlns="http://www.w3.org/2000/svg" xmlns:xlink="http://www.w3.org/1999/xlink" x="0px" y="0px" viewBox="160 -280 1050 970"
	 enable-background="new 160 -280 1050 970" xml:space="preserve">
<defs>
	
	
		<inkscape:perspective  sodipodi:type="inkscape:persp3d" inkscape:vp_z="1050 : 485 : 1" inkscape:vp_y="0 : 1000 : 0" inkscape:vp_x="0 : 485 : 1" inkscape:persp3d-origin="525 : 323.33333 : 1" id="perspective41">
		</inkscape:perspective>
</defs>
<sodipodi:namedview  borderopacity="1.0" pagecolor="#ffffff" inkscape:cy="409.69099" inkscape:cx="994.42799" inkscape:zoom="0.7" showgrid="false" bordercolor="#666666" inkscape:window-height="994" inkscape:window-width="1680" inkscape:pageopacity="0.0" inkscape:window-y="-4" inkscape:window-maximized="0" inkscape:document-units="px" inkscape:current-layer="g5364" inkscape:window-x="-4" inkscape:pageshadow="2" id="base">
	</sodipodi:namedview>
<g id="layer1" inkscape:label="Ebene 1" inkscape:groupmode="layer">
	<g id="g5364" transform="matrix(1.7317682,0,0,1.7317682,-36.457818,-10.990982)">
		<g id="g83701" transform="matrix(1.9185566,7.7122975e-2,-7.7122975e-2,1.9185566,-927.45234,-809.04018)">
			
				<path id="path6494" fill="#EE6F06" stroke="#FFFFFF" stroke-width="1.2029" stroke-linecap="round" stroke-linejoin="round" stroke-miterlimit="10" d="
				M805.6,465.9l7.2,3.9v-1.5l7.2,1.8l1.2,0.9l-0.6,3.6l3.3,2.1l-4.5,0.3l-2.1-0.9l-0.9,2.4l-3.6,4.5l-1.5,0.6l-4.5,2.4l-0.9,2.7
				l-0.3,0.3l-1.2,0.9l-2.7,3.3l-1.5,2.4l-5.4-2.1l-0.3-0.9l0.6-7.2l-1.5-0.9l-0.3-4.5l1.5-1.8l-1.5-0.6L790,477l1.5-4.5l2.7,0.9
				l2.7-0.3v-3.3h2.1l2.4-3.3L805.6,465.9"/>
			
				<path id="path6498" fill="#EE6F06" stroke="#FFFFFF" stroke-width="1.2029" stroke-linecap="round" stroke-linejoin="round" stroke-miterlimit="10" d="
				M805.9,436.8l-2.7,6.9l-2.4-0.6l0.6,2.4l-1.2,0.9l-3.9-2.7l-0.3-4.2l-1.5-0.6l-1.5-2.1h5.1l0.3-3l2.4-0.3l1.8,1.2l1.5,1.2
				L805.9,436.8"/>
			
				<path id="path6502" fill="#EE6F06" stroke="#FFFFFF" stroke-width="1.2029" stroke-linecap="round" stroke-linejoin="round" stroke-miterlimit="10" d="
				M784,438l3.6,7.5h-0.9l-0.9-1.2l-3.6,3l-2.7,0.3l-0.6,2.4l-2.4,0.6l-0.9,2.7l-1.8,0.3v-1.8l-3.9-2.4l-1.2,2.4l0.3,3.6l-1.5,0.9
				h1.5l1.2,3.6l-2.7,5.4l-3,0.6l-0.6,2.4l-3.9,4.2l-2.4-1.8l-1.5,2.1l-2.4-0.3l-1.2-0.9h-5.1l-0.9-1.2l-1.5-1.2l3.3-5.1h-2.4
				l-0.6-1.8V462l1.5-1.5l1.2,1.5l3.6-2.1l-3.6-1.5l-0.3-1.2l3.3,0.6l1.5-2.4l1.8-0.6l-0.6-2.1l2.1,0.6l-0.6-1.8l1.8,0.9l-0.3,1.2
				h3.3l-0.6-2.7h1.8l1.2-0.6l-0.3-2.7l2.7,1.8l-0.6-2.4l2.1-0.6l3,2.4l1.8-1.2l0.3-3l2.1-2.1l-1.8-0.6l1.2-1.2l-0.6-2.4l3.6,1.2
				l-0.3-5.7l2.1-0.6l0.9,0.3L784,438"/>
		</g>
		
			<path id="path6382" fill="#EE6F06" stroke="#FFFFFF" stroke-width="2.3098" stroke-linecap="round" stroke-linejoin="round" stroke-miterlimit="10" d="
			M390.4,53.8l0.9,7.5l6.8,3.2l0.4,5.2l10.8,3.9l-0.7,2.3l-12.2,1.2l-2.2-2.4l-6.4,1.5l2.4-2.8l-2.3-0.7l1.5-7.4l-6.4,0.9l-9.9,3.1
			l-0.4-5.2l-5.7-0.8l-1.7-1.8l1.8-2.2l-0.4-5.2l10.3,1.6l4.2-3.3l4,1.9l3.6-3.9l3.5-0.4l-0.1,1.7L390.4,53.8"/>
		
			<path id="path6386" fill="#EE6F06" stroke="#FFFFFF" stroke-width="2.3098" stroke-linecap="round" stroke-linejoin="round" stroke-miterlimit="10" d="
			M409.3,115.1l1.3,11.6l-3,3.3l-5.2,0.9l-0.7,2.9l-5.2-0.8l-0.8,5.7l-5.4,5l2.1,4.7l-1,9.8l-13.7-2.3l-1.5-5.2l3.5-1.6l-0.4-5.2
			l-7.5-0.3l-0.4-5.2l4.1-2.7l0.3-7.5l0.8-5.2l4.7-1l3.5-2.2l4.7-2.7l5.7,1.4l1.4-6.3l5.8,0.2l3-2.2l4.6,1.3l1.1,2.3L409.3,115.1"/>
		
			<path id="path6390" fill="#EE6F06" stroke="#FFFFFF" stroke-width="2.3098" stroke-linecap="round" stroke-linejoin="round" stroke-miterlimit="10" d="
			M217.3,188.1l3.8,4.8l5.8-0.3l-4.8,4.4l5.6,4.3l5.8,0.2l-3,2.8l-7.4-1.5l-12.2,3l-2.6,7.4l3,11.1l-2.9,1l-0.1,3.5l-11.8,5.9
			l-8.5-18.2l-5.9,3.2l-6.8-3.7l-5.1-1.9l3.5-0.4l1.4-6.9l-2.2-2.4l7-2.6l-0.4-4.1l4.1-2.7l6.2,2.6l3.8,4.8l-0.5-1.7l13.4-2.9
			l6.6-6.1l4,0.7l-0.4-3.5L217.3,188.1"/>
		
			<path id="path6394" fill="#EE6F06" stroke="#FFFFFF" stroke-width="2.3098" stroke-linecap="round" stroke-linejoin="round" stroke-miterlimit="10" d="
			M517.5,249.2l10.9,1l0.1-2.9l2.7,4.7l-3.6,3.3l3.4,2.4l1,3.5l-4.3,6.7l-5.2-0.8l-0.8,6.3l-3.4-0.7l-2.1,8l-4.6,0.4l-1.6-2.9
			l-3,3.9l-4.1,0.4l-2.2-3l7.2-6.1l1.1,0.6l0.6-1.7l1-9.8l3.1-6.2l-3.3-3l0.7-3.4l4.2-3.9l-1.6-3.5l4.1-2.1L517.5,249.2"/>
		<g id="g83697" transform="matrix(1.9185566,7.7122975e-2,-7.7122975e-2,1.9185566,-927.45234,-809.04018)">
			
				<path id="path6402" fill="#EE6F06" stroke="#FFFFFF" stroke-width="1.2029" stroke-linecap="round" stroke-linejoin="round" stroke-miterlimit="10" d="
				M591.4,469.2l5.1,3.3l2.1-1.2l0.9-2.7l3,1.2l2.4-0.9l0.9-0.3l8.1-2.7l1.8-3.3v-2.1l3.3-1.5l0.9,0.9l5.1-0.6l2.4,4.2l1.8,1.2
				l0.6,0.3l1.5,0.3h-1.2l-0.6,1.8h-2.1l1.5,2.4v2.1l-0.6,0.9l1.5,1.5l0.3,5.7l4.2-1.2l-1.5,7.8h-2.1l-2.1,1.2l0.9,3.9l-5.1,0.9
				l-3.3,1.2v2.1l-1.8-1.5l-2.7,0.9l-0.3,0.3l0.3,1.8l-2.1-0.3l-3.3,3.3l-6.9,1.8l0.3,0.9l-2.1-2.4l-3.3-1.2l-2.1,1.5l0.3,2.1
				l-3.6,1.5l1.2,1.2l-0.6,3.6l-1.8,0.3l-3.6-1.2l-7.2-5.1l-7.2-3V498l-4.2-5.7l0.3-5.1l-0.6-1.2l1.8-1.2l-1.5-0.3l2.4-2.7l1.5-0.9
				l-2.7-2.1l0.9-2.4l-1.2-2.4l1.8-3.6v-1.2l-0.3-3.9l0.9-3.9l3-1.8l0.6-0.6l4.5,0.9l3,1.5l4.2,5.4L591.4,469.2"/>
			
				<path id="path6398" fill="#EE6F06" stroke="#FFFFFF" stroke-width="1.2029" stroke-linecap="round" stroke-linejoin="round" stroke-miterlimit="10" d="
				M619.9,502.5l3.9,0.6h3.6l-0.9,2.4l1.5,0.9l-1.2,4.8l0.9,0.6l0.6-1.2l4.2-0.3l1.8,3l-4.5,2.1l-0.3,2.1l-3,3.9l-0.9,0.6l1.8,3
				l-4.5,3.3l-0.6,2.1l-2.1,1.5l0.9,0.6l-5.4,2.4l1.2,3l2.4,0.9l-3,2.7l1.2,1.8l-2.1,1.2l-0.9-1.8H613l-6,3.3l-3.6-3.9l0.9-0.9
				l-2.4-2.1l-1.5-3.9l2.4-1.8l-2.7-3.3l1.8-3.6l-1.8-1.5l6-3.9l0.6-1.5l6-3.3v-1.8l1.5-0.6l-1.8-5.7l1.2-3.9L619.9,502.5"/>
		</g>
		
			<path id="path6406" fill="#EE6F06" stroke="#FFFFFF" stroke-width="2.3098" stroke-linecap="round" stroke-linejoin="round" stroke-miterlimit="10" d="
			M478.1,166.9l1.5,5.2l2.4-2.8l4,0.7l1.5,5.2l2.3-0.5l2.1,4.1l1.9-4.5l5.2-0.4l5,3.7l0.3,5.8l13.6,6.9l5.9-4.4l3.4,1.9l4.5,1.9
			l3.7-5l11.3,6.8l-0.1,1.7l7.3,4.9l4.7-1l0.5,1.7l10.2,4.4l3.1-4.5l5.4-6.1l2.4-1.6l11.7,10.3l-1.4,5.7l-2.4,3.4l-1.9,5.1l-3,2.2
			l-14.5,2.9l-6,5.5l-0.8,5.2l-3,3.3l1.7,0.6l-1.3,2.8l-2.4,1.6l-2.8-1.8l-2-7l-4.3,5.6l-14.7-8.1l-11,0.1l-2.2-2.4l-2.3,1.1
			L517,233l-3.3-3l-2.3-0.1l-9.5,7.1l-0.6,0.6l-8-0.9l2.2,3l-2.3,0.5l-5.1-3.1l-1-4.7l2.3-1.1l-18,2.7l-1-3.5l3.2-7.9l-1.1-1.2
			l-4.1,2.7l-2.2-1.8l1.9-4.5l-11.2,5.3l-0.3-6.9l-16-4.1l-0.7-12.1l1.8-1.7l9.1,2.7l6.4-1.5l-3.3-4.2l3.6-4.5l-3.4-0.7l0.3-6.9
			l-3.4-2.4l-3.5,1.6l-4.6-1.3l-1.4-7l8.8-4.3l-0.3-5.8l3.5-0.4l14.9-12.7l1.6,2.4l9.8,0.4l2.2,1.8l-4.1,2.7l-0.2,4.6l2.3,1.2
			L478.1,166.9"/>
		
			<path id="path6410" fill="#EE6F06" stroke="#FFFFFF" stroke-width="2.3098" stroke-linecap="round" stroke-linejoin="round" stroke-miterlimit="10" d="
			M678.6,141l1.6,2.4l3.5-1l5,4.2l7.8,6.1l5.2-0.9l2.6,6.4l-1.7,0.5l1.1,1.2l-0.7,2.9l-4.7,2.7l-1.4,5.7l-6.3-2l4.7-3.3l-2.2-1.8
			l-3,2.2l-1.6-3.5l-2.9-0.7l-3,3.9l6.1,5.4l3.9,3.6l-5,9l-2,6.3l-3.5-0.1l0.2-4.6l-11.9-5.1l0.7-2.9l-3.4-1.9l-5.8,0.3l-1.1-0.6
			l-9,10l1.6,2.9l-2.3,1.1l-0.6,0l-5.8,0.3l-10,5.4l-11.5,0.1l0.1,12.7l-0.7,2.9l-7.6,2.6l-1.1-1.2l-4.2,5l-1.9,4l-4.9,6.7l-2.4,2.8
			l-3.7,5.6l-1.7,0.5l-7-11.2l-4.9-7.7l3-2.2l1.9-5.1l2.4-3.4l1.4-5.7l-11.7-10.3l0.6-0.6l1.9-5.1l8.8-4.3l2.9-1l7.3-8.4l1.9-4.5
			l4,1.9l8.7-0.2l-6.2-4.3l1.4-6.9l1.1,2.3l3.5-1l5.1,1.4l11.1-4.2l2.2,1.8l0.5,1.7l7.4,1.5l5.9-3.2l2.2,1.8l5.3-2.1l-0.4-5.2
			l5.3-2.7l1,2.9l2.4-1.6l2.8,1.3l6.6-5.5l0.8-5.7L678.6,141"/>
		
			<path id="path6414" fill="#EE6F06" stroke="#FFFFFF" stroke-width="2.3098" stroke-linecap="round" stroke-linejoin="round" stroke-miterlimit="10" d="
			M671.5-11l-1.4,5.1l4.5,1.9l-0.8,5.2l0.7,12.1l3.8,7.1l-2.6,7.4l-4.7,1.5l-1.8,1.7l0.9,5.2l-4.6-0.8l-1.4,6.3l-1.7,0.5l-7.3,9.5
			l0.5,2.9l3.2,6.5l-3,3.3l-0.3,8.6l-3.5,0.4l2,7l0.4,3.5l6.3,0.3l-0.7,3.4l8.5,4.4l-3.1,4.5l1.5,4.7l4.3,8.2l8,2.6l-2.6,8.5
			l3.8,7.1l3.5,14.6l-3.5,1l-1.6-2.4l-4.1,0.4l-0.8,5.7l-6.6,5.5l-2.8-1.3L662,153l-1-2.9l-5.3,2.7l0.4,5.2l-5.3,2.1l-2.2-1.8
			l-5.9,3.2l-7.4-1.5l-0.5-1.7l-2.2-1.8l-11.1,4.2l-5.1-1.4l-3.5,1l-1.1-2.3l-2.2-1.8l-13.7-4l-0.3-5.8l-4.6-0.2l-1.5-5.2l-2.3,1.1
			l3.7-21.2l-2.8-1.3l1.4-6.9l-5.2-0.2l-3.3-3l1.3-4l-2.8-1.3l5.7-13l4,1.3l0.7-2.3l5.1,1.9l6.8,3.7l10.5-4.2l2.4-3.4l-5.7-2.5
			l1.3-3.4l-9.5-7.9l-0.4-3.5l-5.4-8.3l1.8-1.7l-0.5-2.3l-4.6-0.8L589,46.3l10.5-1.9l2.8,1.8l1.8-2.8l5.1,3.1l4.2-5l-5.6-3.1
			l0.1-2.3l7.3-8.4l2.3-1.1l5.2-1.5L618,14.6l0.1-3.5l4.8-5L622.1-2l-4.4-5.4l0-0.6l6.8,3.2l-0.6,1.7l3.9,3l2.3-1.1l-0.9-5.8
			l6.3,0.3l4.2-3.3l1.1,1.2l2.8,1.3l3.3,4.2l9.7,2.1l-2.1-4.7l2.4-3.4l10.3,2.7l2-6.3L671.5-11"/>
		
			<path id="path6418" fill="#EE6F06" stroke="#FFFFFF" stroke-width="2.3098" stroke-linecap="round" stroke-linejoin="round" stroke-miterlimit="10" d="
			M258.7-139.4l4.5,3.1l5.2-0.4l-0.2,4.6l9.2,1.5l5.8-1.5l5.1,2.5l-1.3,4l3.8,5.9l-2,6.8l-0.6,0.6l6.1,6l-1.6,11.5l1.6,2.9l-2.8-1.3
			l-2.4,3.4l1.5,4.7l-2.9,0.5l-2.5,5.7l4.9,8.3l-3.1,5.6l-1.7-1.2l-3.6,2.7l0.3,6.4l-3.6,4.5l6.2,3.7l-0.1,3.5l-0.7,4l3.4,1.3
			l-2,5.7l-2.5,5.1l-3.7-8.2l-4.7,1l3.2,7L270-34l-3.5,2.2l-2.2-2.4L251-35.4l0.4,3.5l-4-0.7l2.7,3.6l-3,3.3l8.9,8.4l-3.8,7.9
			l-2.8-3L245.9-9l-3.9-2.5l-4.3,7.3l-6.7-4.3l-4-0.7l-3.5,2.2L220.3-2l-4.6-1.3L215,0.1l-4-1.9l-5.3,3.2l4.7,11.7l-5.7-2l-2.9,1.6
			l-3.3-3l-4.2,3.9l-5.4-8.9l-4.5-1.9l3.5-0.4l3.1-5.6l-1-4.7l1.4-6.9l-1.6-4.1l2.1-8l3.2-7.9l16-10.9l-1.5-4.7l2.5-5.7l-1-4.7
			l4.6-0.4l11.5,0.5l1.6,3.5l14.3,4l1.8-1.7l3.6-3.9l-5.6-4.8l3.9-11.4l0.2-5.8l2.9,0.1l-2.4-11.1l2.3,0.1l1.4-6.9l-1.9-25.4
			l4.3-6.2l0.7-4l-1.7-1.8L258.7-139.4"/>
		
			<path id="path6422" fill="#EE6F06" stroke="#FFFFFF" stroke-width="2.3098" stroke-linecap="round" stroke-linejoin="round" stroke-miterlimit="10" d="
			M436.5-89.6l1.6,3.5l-2.4,2.2l5.1,2.5l3-2.2l1.5,5.2l2.4-2.2l1.6,2.9l-2.3-0.7l0.5,2.9l6.9-0.3l-0.7,3.4l2.8,1.8l1.8-2.8l2.8,1.3
			l-2,6.3l4.5,3.1l5.5,5.4l15.2,8.1l5.1,2.5l2.9,0.7l10.3,1l1.2-1.7l14.9,2.3l-1.8,1.7l2.7,4.1l-0.8,5.7l-3.5,1l1.7,1.2l-3.9,11.9
			l1,4.7l6.5-3.2l5.7,0.8l0.4,4.1l-1.7,0.5l3.5,12.8l7-2l0.4,4.6L533,5.4l-0.3,7.5l-1.3,4l-3.8-5.9l-7,0.9l-2.6,6.8l-6.4,2.6
			l-2.6,6.8l2.2,3l-0.2,5.8l-4.3,7.3l-3.4-2.4l-1.9,4l-4.1,1l-5-3.7l-1.3,3.4l-6.2-3.1l0.3-6.9l-9.9,1.3l-0.5-1.7l-8-1.5l-1.9,3.4
			l-9.3,1.4l-1.2,2.3l-2.3-0.7l-1.8,1.1l-0.9-5.2l-4-0.7l-6.9,0.3l-0.7,4l-2.8-1.8l-5.7-2.5l-1.8,2.8l-4.6,0.4l-11-13.1l0.2-4.6
			l5.8-0.9l-4.2-10.5l12.8-4.1l4.6,0.8L430,1.2l5.2-0.9l8.1,0.3l6.3,1.4l1.3-17.8l6.5-4.4l-1.1-2.3l-8-1.5l-14.9-2.9l-3.4-1.9
			l0.2-4.6l-4-0.2l5.3-3.2l0.1-2.9l-3.4-0.7l1.3-2.8l10.5-4.2l0.8-5.7l4.1-0.4l-1-4.7l1.8-1.1l-3.9-2.5l-8.7,0.2l1.2-1.7l-3.4-1.3
			l1.3-4l-4-0.7l-0.4-3.5l-9.8,0.2l-5.7-1.4l4.9-7.9l5.5-7.3l10.3,1.6L436.5-89.6"/>
		
			<path id="path6426" fill="#EE6F06" stroke="#FFFFFF" stroke-width="2.3098" stroke-linecap="round" stroke-linejoin="round" stroke-miterlimit="10" d="
			M395.7-91.8l7.7,9l4.1-1.6l9.7,2.7l-4.9,7.9l5.7,1.4l9.8-0.2l0.4,3.5l4,0.7l-1.3,4l3.4,1.3l-1.2,1.7l8.7-0.2l3.9,2.5l-1.8,1.1
			l1,4.7l-4.1,0.4l-0.8,5.7l-10.5,4.2l-1.3,2.8l3.4,0.7l-0.1,2.9l-5.3,3.2l4,0.2l-0.2,4.6l3.4,1.9l14.9,2.9l8,1.5l1.1,2.3l-6.5,4.4
			L449.6,2l-6.3-1.4l-8.1-0.3L430,1.2l0.9,5.2l-4.6-0.8l-12.8,4.1l1.3-2.8l-3.5-0.1l-5.2,0.4l-0.1,3.5l-2.9,1l-7,0.9l-6.7-4.3
			L388,14l-5-5.4l-0.2-9.2l-5.1-1.9l1.3-4l-12-2.2l2.4-3.4l-3.4-1.9l-8-2.6l-3,3.3l-6.2-2.6l-4.4-5.9l1.2-2.3l3.4,1.3l2.4-3.4
			l-5.5-6.6l1.4-6.3l3-2.8l6.3,0.8l3.6-3.9l0.9-7.5L367-52l-5.6-4.8l4.7-3.3l-1.6-2.9l3.1-4.5l-2.8-3l4.7-1.5l-0.5-1.7l6.9-0.3
			l2.4-3.4l6.4-1.5l-1-4.1l-5-4.2l1.2-2.3l5.8,0.2l-5.6-3.7l0.7-3.4l5.8-0.3l3.3,4.2L395.7-91.8"/>
		
			<path id="path6434" fill="#EE6F06" stroke="#FFFFFF" stroke-width="2.3098" stroke-linecap="round" stroke-linejoin="round" stroke-miterlimit="10" d="
			M550.2,8.4l5.7,2l-6.7,8.4l11.3,5.6l0,0.6l-2.3-0.1l-0.3,6.3l5.2-0.4l2.7,4.7l-1.8,1.1l0.3,6.4l-5.5,8.4l0.4,4.1l6.4-1.5l-1.3,4
			l2.2,1.8l-2,5.7l-2.9-0.7l1,2.9l-2,6.8l4.5,2.5l0.9,5.8l4.5,1.9l-0.8,5.7l-9.8-0.4l2.7,4.1l-5.2,0.9l-1.7-1.8l-3,2.2l-0.9,8.6
			l-3,2.2l-6.3-14.7l-10-9.1l-1.7-0.6l-4.1,1l-5.2-0.8l-3.9-3l-0.2,4l-6.2-3.7l-5.8,0.3l0.5,1.7l-5.2,1.5l-1.1-1.8l-3,2.8l1.7,1.8
			l-5.8-0.2l-5-5.4l-2.4,2.8l-3.9-4.2l1.2-1.7l-4.6-1.3l-11.5-0.5l2.4-16l4.7-2.1l-2-8.7l4.3-6.7l-1-4.1l9.9-1.3l-0.3,6.9l6.2,3.1
			l1.3-3.4l5,3.7l4.1-1l1.9-4l3.4,2.4l4.3-7.3l0.2-5.8l-2.2-3l2.6-6.8l6.4-2.6l2.6-6.8l7-0.9l3.8,5.9l1.3-4l4.6-0.4l0.9-7.5l1.2-1.1
			l4.4,5.9l0.3-6.9l4.1-0.4L550.2,8.4"/>
		
			<path id="path6438" fill="#EE6F06" stroke="#FFFFFF" stroke-width="2.3098" stroke-linecap="round" stroke-linejoin="round" stroke-miterlimit="10" d="
			M382.8-0.7l0.2,9.2l5,5.4l1.4-5.7l6.7,4.3l7-0.9l2.9-1l0.1-3.5l5.2-0.4l3.5,0.1l-1.3,2.8l4.2,10.5l-5.8,0.9l-0.2,4.6l11,13.1
			l-0.6,1.1l-3.4,13.1l-2.3,1.1l1.5,5.8l-3.8,7.3l-2.3,0.5l-4.7,1.5L411,72l-1.8,1.7l-10.8-3.9l-0.4-5.2l-6.8-3.2l-0.9-7.5l1.8-2.2
			l0.1-1.7l-3.5,0.4l-3.6,3.9l-4-1.9l-4.2,3.3L366.8,54l0.4,5.2l-1.8,2.2l1.7,1.8l5.7,0.8l0.4,5.2l9.9-3.1l6.4-0.9l-1.5,7.4l2.3,0.7
			l-2.4,2.8l6.4-1.5l2.2,2.4l0.8,8.1l-3.5,2.2l-5.9,3.8L377,85.6l-6.4,1.5l-4.2,3.3l-5.2-0.2l-0.1,2.9l-9.3,0.8l-5.3,3.2l0.8-5.2
			l-3.4-0.7l-4-0.2l-1.6,11.5l-3.1,4.5l-1.8,1.1l-8.6-2.1l-6.4,2l-5.1-2.5l3.8-8.5l-1.7-0.6l1.4-5.1l4.7-1.5l2.5-5.7l-9.7-2.7
			l-4.3-6.5l4.1-2.1l0.7-2.9l6.4-2l1,2.9l2.3-0.5l0.2-4l2.8,2.4l5.4-5l-2.3-0.7l0.2-4l-2.8-3l-5.2-0.2l1.3-2.8l-4.3-7.7l-5.7-0.8
			l-1.4-7.6l9.4-4.2l-3.1-8.2l4.2-3.3l-4-14.6l3.6-2.7l-1-3.5l0.7-2.9l6.4-1.5l1.9,11l3.4,0.7l4.8-5l4,1.9l0.1-2.3l4.6,0.8l-2.2-3.5
			l1.9-4.5l6.3,0.3l5.5,6l1.3-2.8l2.8,3L360.9-1l3.5-0.4l-2.7-4.7l2.4-3.4l2.9,0.7l12,2.2l-1.3,4L382.8-0.7"/>
		
			<path id="path6442" fill="#EE6F06" stroke="#FFFFFF" stroke-width="2.3098" stroke-linecap="round" stroke-linejoin="round" stroke-miterlimit="10" d="
			M407,171l2.8,2.4l7-0.9l2.8,2.4l8.2-2l1.7-0.5l5.5,6l6.5-4.4l1.4,7l4.6,1.3l3.5-1.6l3.4,2.4l-0.3,6.9l3.4,0.7l-3.6,4.5l3.3,4.2
			l-6.4,1.5l-9.1-2.7l-1.8,1.7l0.7,12.1l-3,3.9l-8.8,3.1l-4.6,0.4l-9.8,0.8l-3.7,5l-5.8,2.1l-5.5,8.4l-2.3-0.1l0.7-4l-2.8-1.3
			l-3.1,5.6l-6.5,3.2l0.9,7l-2.5,4.5l3.1,8.2l-6.6,6.1l3.8,5.9l-1.5,9.2l-18.5,1.6l-4.5-2.5l1.8-2.8l-2.2-1.8l-12.6-2.2l-2.6-5.9
			l-5.8,2.1l-1.4-9.3l-6.7-4.3l-2.9,0.5l-3.4-0.7l-10.5,1.9l-2.7,9.7l-15.5-2.4l0.1-2.9l3-2.8l-11.3-4.5l-3.8-7.1l14.1-6.9l6.9,0.3
			l1.3-4l1.7,1.2l14.6-4l14-3.5l-1-4.7l8.3-5.4l1.9-5.1l-1.6-2.9l3.5-1l4.6,0.2l6.6-6.7l0.2-4.6l7.7-4.3l0.1-1.7l-2.7-4.1l1.5-9.7
			l7.1-4.9l9.2,0.9l6.4-0.3l-1.1-2.3l8.2-3.1l6.4-0.3L407,171"/>
		
			<path id="path6446" fill="#EE6F06" stroke="#FFFFFF" stroke-width="2.3098" stroke-linecap="round" stroke-linejoin="round" stroke-miterlimit="10" d="
			M310,74.8l4.3,6.5l9.7,2.7l-2.5,5.7l-4.7,1.5l-1.4,5.1l1.7,0.6l-3.8,8.5l5.1,2.5l6.4-2l8.6,2.1l1.8-1.1l3.1-4.5l1.6-11.5l4,0.2
			l3.4,0.7l-0.8,5.2l5.3-3.2l9.3-0.8l0.5,2.9l5.2,0.8l-1.9,4l-0.7,4l-4.5-1.9l-1.8,2.8l2.2,3l-4.7,2.1l0.5,2.3l-7,1.4l2.2,3
			l-5.5,7.3l-3,3.9l3.3,4.2l-0.2,4.6l1.6,2.4l-0.7,4l3.9,2.5l2.8,2.4l-4.1,2.1l13.8,1.7l-2.4,1.6l2.2,1.8l-2.9,0.5l-0.1,2.9l-2.9,1
			l-10,4.2l-0.9,7.5l-6.6,7.2l-9.4,5.4l-4.8,5l-12.2,1.8l-3.6,3.3l-2.7-4.7l0.9-8.6l1.8-2.2l3.4,0.7l0.1-1.7l-1.5-5.2l-7.3-3.8
			l-1.1-1.8l-7.2-7.8L291,160l0.2-5.2l2.8,1.3l-1.6-2.4l-7.7,4.9l-0.9-5.8l-3.9-4.2l-3.6,3.3l-1.7-1.8l-5.2,0.9l-4-0.7l-5.9,3.8
			l-1.7,0.5l-1.8,1.7l-3.5,1.6l-8.2,2l-0.1-11l-2.8-3l1.2-1.7l0.2-4l-2.7-4.7l4,0.2l1.3-3.4l2.3,0.1l-2.9-0.7l-1.1-0.6l-4.9-7.1
			l5.4-5l-1-3.5l4.7-3.3l-1.2-13.9l-0.8-8.7l-8.1,0.3l0.7-2.9l4.1-14.8l-0.2,4.6l3.6-3.9l2.3,1.2l1.8-1.7l3.3,3l7.9,3.8l0-1.2
			l1.1,1.8l7.9,3.2l1.2-1.7l-0.2,5.2l9.2,0.9l0.2-4l5.2,0.8l2.6-6.8l2.7,3.6l3.6-3.9l5.1,1.9l5.7,1.4l-2.1-5.9l4.1-0.4L310,74.8"/>
		
			<path id="path6450" fill="#EE6F06" stroke="#FFFFFF" stroke-width="2.3098" stroke-linecap="round" stroke-linejoin="round" stroke-miterlimit="10" d="
			M587.9-68.5l4.9,7.1l6.2,3.1l15.5,0.6l2.7,4.7l-0.3,8.6l1.6,4.1l9.3-3.1l2.8,2.4l2.3-0.5l2.7,4.7l9.1,3.2l6.4-2l8.1,0.3l2.5-3.9
			l1,2.9l3.5-1l3.8,5.9l-2,6.8l3.4,2.4l-1.4,6.3l1.5,4.7l-2.2-1.8l-2,6.3L657-9.2l-2.4,3.4l2.1,4.7L647-3.3l-3.3-4.2l-2.8-1.3
			l-1.1-1.2l-4.2,3.3l-6.3-0.3l0.9,5.8L627.8,0l-3.9-3l0.6-1.7l-6.8-3.2l0,0.6l4.4,5.4l0.8,8.1l-4.8,5l-0.1,3.5l4.8,10.6l-5.2,1.5
			l-2.3,1.1l-7.3,8.4l-0.1,2.3l5.6,3.1l-4.2,5l-5.1-3.1l-1.8,2.8l-2.8-1.8L589,46.3l2.4,11.6l4.6,0.8l0.5,2.3l-1.8,1.7l5.4,8.3
			l0.4,3.5l9.5,7.9l-1.3,3.4l5.7,2.5l-2.4,3.4l-10.5,4.2l-6.8-3.7l-5.1-1.9l-0.7,2.3l-4-1.3l-3.4-1.9l-2.8-2.4l-3.4-2.4l-4.6,0.4
			l-4.5-1.9l-0.9-5.8l-4.5-2.5l2-6.8l-1-2.9l2.9,0.7l2-5.7l-2.2-1.8l1.3-4l-6.4,1.5l-0.4-4.1l5.5-8.4l-0.3-6.4l1.8-1.1l-2.7-4.7
			l-5.2,0.4l0.3-6.3l2.3,0.1l0-0.6l-11.3-5.6l6.7-8.4l-5.7-2l-2.1-5.8l-4.1,0.4l-0.3,6.9l-4.4-5.9L538.2,5l-0.9,7.5l-4.6,0.4
			l0.3-7.5l2.9-1.6l-0.4-4.6l-7,2l-3.5-12.8l1.7-0.5l-0.4-4.1l-5.7-0.8l-6.5,3.2l-1-4.7l3.9-11.9l-1.7-1.2l3.5-1l0.8-5.7l-2.7-4.1
			l1.8-1.7l10.4-0.2l12.5,3.4l3.1-5.1l3.2,5.9l4,0.2l7.1-4.9l4.3-6.2l1.2-1.1l5.2-14.2l13.1,3.4l3.1-4.5L587.9-68.5"/>
		
			<path id="path6454" fill="#EE6F06" stroke="#FFFFFF" stroke-width="2.3098" stroke-linecap="round" stroke-linejoin="round" stroke-miterlimit="10" d="
			M521.2,156l-4.1,1l-0.1,1.7l11.1-3.6l6.8,3.2l2.8,1.8l2.6-6.2l9.1,3.2l5.1,1.4l-3.2,8.5l6.3,1.4l2.8,1.3l-3,3.3l0.2,8.7l2.8,1.8
			l-1.7,13.8l-4.7,1l-7.3-4.9l0.1-1.7l-11.3-6.8l-3.7,5l-4.5-1.9l-3.4-1.9l-5.9,4.4l-13.6-6.9l-0.3-5.8l-5-3.7l-5.2,0.4L492,179
			l-2.1-4.1l-2.3,0.5l-1.5-5.2l-4-0.7l-2.4,2.8l-1.5-5.2l1.8-2.8l-2.3-1.2l0.2-4.6l4.1-2.7l4.6,0.8l3-3.9l4.5,3.6l7.8-7.8l1.3-4.6
			l5.8-0.9l3.8,5.3l5.2,0.8l-2.9,1.6L521.2,156"/>
		
			<path id="path6458" fill="#EE6F06" stroke="#FFFFFF" stroke-width="2.3098" stroke-linecap="round" stroke-linejoin="round" stroke-miterlimit="10" d="
			M397.3,242.1l3.9,3l4.7-1.5l5.1,1.9l3.2,7.6l5.9-2.6l3.9,3l-1.2,15.5l3.4,0.7l1.9-4.5l7.6-2l1.3-4.6l10.5-3l3.2,5.9l9.4-4.8
			l1.5,5.8l7-2.6l0.6,0l3.4,1.3l2.4-2.8l4.4,4.2l8.6,2.1l0,1.2l8.7-2.5l11.1,10.2l-7.2,6.1l2.2,3l4.1-0.4l3-3.9l1.6,2.9l2.1,5.3
			l-5.9,3.8l-4.6-0.2l1.7,1.8l4.7-2.1l5.1,1.9l-0.7,3.4l2.8,1.3l-3.2,6.8l-0.6,15.5l-2.5,4.5l-1.8,1.1l-1.3,2.8l2.6,8.2l-0.9,9.2
			l5.5,6.6l-4.6,0.4l-2.1-4.7l-1.4,5.7L505,345l-5.2-0.2l1,3.5l3.9,17.5l-1.5,8.6l-4.7,1.5l-5-4.2l1.6-12l-2.4,1.6l-0.9-5.8
			l-2.3-0.1L487,361l-1.8,2.8l-2.8-1.3l-0.2,5.2l-2.3,0.5l-7.1-9.5l-4.6-0.8l-9.8-0.4l-7.9-3.8l-1.7-0.6l-2.1-4.1l0.2-5.2l-3.9-4.2
			l-9.3,0.8l-0.3-5.8l3.8-9.6l-4.6-0.8l-3.8-6.5l-9.2-1.5l-8.2,3.1l-0.5-2.9l-4-1.9l-0.9-20.8l-5.1-1.4l-4.2,4.4l-1.6-3.5l-8-2.1
			l-4.7-11.1l1.5-9.2l-3.8-5.9l6.6-6.1l-3.1-8.2l2.5-4.5L397.3,242.1"/>
		
			<path id="path6462" fill="#EE6F06" stroke="#FFFFFF" stroke-width="2.3098" stroke-linecap="round" stroke-linejoin="round" stroke-miterlimit="10" d="
			M419.6,74.6l2.2,3.5l2.3-0.5l1,4.1l10-4.2l-2.5,4.5l-5.2,0.4l-0.1,1.7l3.5,0.1l-0.2,4l-5.8,1.5l-2.8-1.8l-5.5,7.3l8.6,0.9
			l-1.8,1.1l1,2.9l7-1.4l-5.4,5.5l6.9,0.3l2.8,3l-6.1,8.4l5.2,0.2l-0.3,6.9l9.8-0.2l1-9.8l0.6,0l5.8-0.3l3.9,2.5l1.8-2.8l2.3,1.2
			l1.6,3.5l-3,3.3l6.3,1.4l-0.7,3.4l6.1,6.6l-3,2.8l0,0.6l1,3.5l4.6,0.2l-6.7,9.5l2.8,2.4l-14.9,12.7l-3.5,0.4l0.3,5.8l-8.8,4.3
			l-6.5,4.4l-5.5-6l-1.7,0.5l-8.2,2l-2.8-2.4l-7,0.9L407,171l-6.3-1.4l-6.4,0.3l-8.2,3.1l1.1,2.3l-6.4,0.3l-9.2-0.9l-7.1,4.9
			l-1.5,9.7l2.7,4.1l-0.1,1.7l-7.7,4.3l-0.2,4.6l-6.6,6.7l-4.6-0.2l-3.5,1l1.6,2.9l-1.9,5.1l-8.3,5.4l1,4.7l-14,3.5l-2.3-14.5
			l-6.3-0.3l-1.6-3.5l-2.8-2.4l2.5-3.9l-2.8-2.4l-0.8-9.8l5.4-5l12.2-1.8l4.8-5l9.4-5.4l6.6-7.2l0.9-7.5l10-4.2l2.9-1l0.1-2.9
			l2.9-0.5l-2.2-1.8l2.4-1.6l-13.8-1.7l4.1-2.1l-2.8-2.4l-3.9-2.5l0.7-4l-1.6-2.4l0.2-4.6l-3.3-4.2l3-3.9l5.5-7.3l-2.2-3l7-1.4
			l-0.5-2.3l4.7-2.1l-2.2-3l1.8-2.8l4.5,1.9l0.7-4l1.9-4l-5.2-0.8l-0.5-2.9l0.1-2.9l5.2,0.2l4.2-3.3l6.4-1.5l10.7,5.6l5.9-3.8
			l3.5-2.2l-0.8-8.1l12.2-1.2l0.7-2.3L411,72l4.7-1L419.6,74.6"/>
		
			<path id="path6466" fill="#EE6F06" stroke="#FFFFFF" stroke-width="2.3098" stroke-linecap="round" stroke-linejoin="round" stroke-miterlimit="10" d="
			M396.7,112.3l-1.4,6.3l-5.7-1.4l-4.7,2.7l-3.5,2.2l-4.7,1l-0.8,5.2l-0.3,7.5l-4.1,2.7l0.4,5.2l7.5,0.3l0.4,5.2l-3.5,1.6l1.5,5.2
			l13.7,2.3l1-9.8l-2.1-4.7l5.4-5l0.8-5.7l5.2,0.8l0.7-2.9l5.2-0.9l3-3.3l-1.3-11.6l1.8-1.1l-1.1-2.3l-4.6-1.3l-3,2.2L396.7,112.3"
			/>
		
			<path id="path6470" fill="#EE6F06" stroke="#FFFFFF" stroke-width="2.3098" stroke-linecap="round" stroke-linejoin="round" stroke-miterlimit="10" d="
			M280,148.6l3.9,4.2l0.9,5.8l7.7-4.9l1.6,2.4l-2.8-1.3L291,160l4.6-0.4l7.2,7.8l1.1,1.8l7.3,3.8l1.5,5.2l-0.1,1.7l-3.4-0.7
			l-1.8,2.2l-0.9,8.6l2.7,4.7l-1.8,1.7l0.8,9.8l2.8,2.4l-2.5,3.9l2.8,2.4l1.6,3.5l6.3,0.3l2.3,14.5l-14.6,4l-1.7-1.2l-1.3,4
			l-6.9-0.3l-14.1,6.9l3.8,7.1l11.3,4.5l-3,2.8l-0.1,2.9l-4,14.3l-13.2-2.3l-2.5,3.9l-8.7,2l-7.5-0.3l-4.5-3.6l-8.8,3.7l-5.1-1.4
			l-10.2,10l-5.8,0.9l-5.7-2l-3.7-8.2l-2.2-3.5l6-5l-4.5-1.9l-2.1-5.8l10.5-4.2l-1.7-1.2l4.1-2.7l1.3-4l8.9-6l-3.2-5.9l1.8-1.1
			l6.1-7.3l0.7-4l8.8-3.7l-3.2-5.9l-8.1,0.3l-1.2,2.3l-1.7-1.2l2.7-9.1l-2.8-1.8l1.9-4.5l-6.9-0.3l3-2.8l-5.8-0.2l-5.6-4.3l4.8-4.4
			l-5.8,0.3l-3.8-4.8l5.2-1.5l3.3,3l0.2-4l6.4-2l9.9-1.3l-1.4-7.6l4.1-2.1l4,0.2l3.5-14.8l3.5-1.6l1.8-1.7l1.7-0.5l5.9-3.8l4,0.7
			l5.2-0.9l1.7,1.8L280,148.6"/>
		
			<path id="path6474" fill="#EE6F06" stroke="#FFFFFF" stroke-width="2.3098" stroke-linecap="round" stroke-linejoin="round" stroke-miterlimit="10" d="
			M476.2,41.7l-4.3,6.7l2,8.7l-4.7,2.1l-2.4,16l11.5,0.5l4.6,1.3l-1.2,1.7l3.9,4.2l2.4-2.8l5,5.4l5.8,0.2l-1.7-1.8l3-2.8l1.1,1.8
			l5.2-1.5l-0.5-1.7l5.8-0.3l6.2,3.7l0.2-4l3.9,3L527,83l0.1,11l-6.8-2.6l1,4.7l-2.4,2.2l3.4,1.3l-4.2,3.9l-0.8,5.7l-3.5,2.2
			l-5.6-4.8l-4.1,1l1,4.7l-5-3.7l0.4,5.2l-2.3,1.1l-3.5-0.1l0.9,5.2l-6.3-0.3l0.7-2.3l-3.4-1.9l1,3.5l-4-1.3l1,4.1l-3.5,1l-3.1,4.5
			l-6.3-1.4l0.5,2.3l6.8,3.2l-7.1,3.8l-2.2-3l-6.1-6.6l0.7-3.4l-6.3-1.4l3-3.3l-1.6-3.5l-2.3-1.2l-1.8,2.8l-3.9-2.5l-5.8,0.3l-0.6,0
			l-1,9.8l-9.8,0.2l0.3-6.9l-5.2-0.2l6.1-8.4l-2.8-3l-6.9-0.3l5.4-5.5l-7,1.4l-1-2.9l1.8-1.1l-8.6-0.9l5.5-7.3l2.8,1.8l5.8-1.5
			l0.2-4l-3.5-0.1l0.1-1.7l5.2-0.4l2.5-4.5l-10,4.2l-1-4.1l-2.3,0.5l-2.2-3.5l-3.9-3.6l-4.7,1l-3.9-2.5l4.7-1.5l2.3-0.5l3.8-7.3
			l-1.5-5.8l2.3-1.1l3.4-13.1l0.6-1.1l4.6-0.4l1.8-2.8l5.7,2.5l2.8,1.8l0.7-4l6.9-0.3l4,0.7l0.9,5.2l1.8-1.1l2.3,0.7l1.2-2.3
			l9.3-1.4l1.9-3.4l8,1.5l0.5,1.7L476.2,41.7"/>
		
			<path id="path6482" fill="#EE6F06" stroke="#FFFFFF" stroke-width="2.3098" stroke-linecap="round" stroke-linejoin="round" stroke-miterlimit="10" d="
			M318.6-124.9l5.1,1.4l2.4-2.8l7.4,1.5l13.4,9.8l5.7,2l2.9-1.6l7.3,4.9l2,7.6l15.9,5.8l-0.7,3.4l5.6,3.7l-5.8-0.2l-1.2,2.3l5,4.2
			l1,4.1l-6.4,1.5l-2.4,3.4l-6.9,0.3l0.5,1.7l-4.7,1.5l2.8,3l-3.1,4.5l1.6,2.9l-4.7,3.3L367-52l-5.8-0.2l-0.9,7.5l-3.6,3.9l-6.3-0.8
			l-3,2.8l-2.9-0.7l0.1-2.9l5.2-1.5l-0.5-1.7l-5.7-2l-1-4.1l3.5,0.1l-5.5-6l-3.5,1l-2.5,3.9l-3.9-3.6l-5.2-0.8l-3.2,7.9l-4.7,1.5
			l-5-5.4l-2.5,4.5l-5.7-0.8l-3.6,4.5l-6.4,2.6l-5.6-4.3l-1.4,5.1l3.3,4.7l-1.9,3.4l-4-1.3l2-5.7l-3.4-1.3l0.7-4l0.1-3.5l-6.2-3.7
			l3.6-4.5l-0.3-6.4l3.6-2.7l1.7,1.2l3.1-5.6l-4.9-8.3l2.5-5.7l2.9-0.5l-1.5-4.7l2.4-3.4l2.8,1.3l-1.6-2.9l1.6-11.5l-6.1-6l0.6-0.6
			l3.5-1.6l2.8,1.3l7.7-5.5l8,2.6l4.4-8.5l-0.9-5.2L318.6-124.9"/>
		<g id="g9746">
			
				<path id="path6486" fill="#EE6F06" stroke="#FFFFFF" stroke-width="2.3098" stroke-linecap="round" stroke-linejoin="round" stroke-miterlimit="10" d="
				M535.7,269.5l-0.9,8l-0.8,6.3l-0.3,8.6l3.2,7l-0.1,2.3l3.4,1.3l7.4,1.5l-1.3,2.8l4.2,9.4l-0.3,6.3l-4.7,2.1l1.1,2.3l-1.8,2.2
				l-3.5,1.6l0.5,2.9l-4.4,7.9l0.3,7.5l0.6,0l5.4,8.3l-4.3,7.3l-2.5,4.5l-2.9,1l1.6,2.9l-5.4,4.4l-5.8,2.1l-10.7,8.2l-7.5,0.3
				l-6.7-5.5l-2.1-4.7l1.3-2.8l4.7-1.5l1.5-8.6l-3.9-17.5l-1-3.5l5.2,0.2l1.4,7.6l1.4-5.7l2.1,4.7l4.6-0.4l-5.5-6.6l0.9-9.2
				l-2.6-8.2l1.3-2.8l1.8-1.1l2.5-4.5l0.6-15.5l3.2-6.8l-2.8-1.3l0.7-3.4l-5.1-1.9l-4.7,2.1l-1.7-1.8l4.6,0.2l5.9-3.8l-2.1-5.3
				l4.6-0.4l2.1-8l3.4,0.7l0.8-6.3l5.2,0.8L535.7,269.5"/>
			
				<path id="path6490" fill="#EE6F06" stroke="#FFFFFF" stroke-width="2.3098" stroke-linecap="round" stroke-linejoin="round" stroke-miterlimit="10" d="
				M456.5,216.2l0.3,6.9l11.2-5.3l-1.9,4.5l2.2,1.8l4.1-2.7l1.1,1.2l-3.2,7.9l1,3.5l18-2.7l-2.3,1.1l1,4.7l5.1,3.1l2.3-0.5l-2.2-3
				l8,0.9l0.6-0.6l9.5-7.1l2.3,0.1l3.3,3l0.8-5.7l2.3-1.1l2.2,2.4l11-0.1l14.7,8.1l4.3-5.6l2,7l-1.2,1.7l-7.6,3.2l6.1,4.9l2.7,3.6
				l-3.6,3.3l1.1,1.2l-2.9,1.6l-1.7,0.5l-2,5.7l-7.2,6.6l-1.6-2.4l1.9-4.5l-6.3-2l-1-3.5l-3.4-2.4l3.6-3.3l-2.7-4.7l-0.1,2.9
				l-10.9-1l0.3-8.6l-4.1,2.1l1.6,3.5l-4.2,3.9l-0.7,3.4l3.3,3l-3.1,6.2l-1,9.8l-0.6,1.7l-1.1-0.6l-11.1-10.2l-8.7,2.5l0-1.2
				l-8.6-2.1l-4.4-4.2l-2.4,2.8l-3.4-1.3l-0.6,0l-7,2.6l-1.5-5.8l-9.4,4.8l-3.2-5.9l-10.5,3l-1.3,4.6l-7.6,2l-1.9,4.5l-3.4-0.7
				l1.2-15.5l-3.9-3l-5.9,2.6l-3.2-7.6l-5.1-1.9l-4.7,1.5l-3.9-3l-11.1,4.2l-0.9-7l6.5-3.2l3.1-5.6l2.8,1.3l-0.7,4l2.3,0.1l5.5-8.4
				l5.8-2.1l3.7-5l9.8-0.8l4.6-0.4l8.8-3.1l3-3.9L456.5,216.2"/>
		</g>
		
			<path id="path6506" fill="#EE6F06" stroke="#FFFFFF" stroke-width="2.3098" stroke-linecap="round" stroke-linejoin="round" stroke-miterlimit="10" d="
			M340.7-57.7l5.5,6l-3.5-0.1l1,4.1l5.7,2l0.5,1.7l-5.2,1.5l-0.1,2.9l2.9,0.7l-1.4,6.3l5.5,6.6l-2.4,3.4l-3.4-1.3l-1.2,2.3l4.4,5.9
			l6.2,2.6l3-3.3l8,2.6l3.4,1.9L367-8.8l-2.9-0.7l-2.4,3.4l2.7,4.7L360.9-1l2.2,2.4l-2.8-3l-1.3,2.8l-5.5-6L347.2-5l-1.9,4.5
			l2.2,3.5l-4.6-0.8l-0.1,2.3l-4-1.9l-4.8,5L330.6,7l-1.9-11l-6.4,1.5l-0.7,2.9l1,3.5l-3.6,2.7l4,14.6l-4.2,3.3l3.1,8.2l-9.4,4.2
			l1.4,7.6l5.7,0.8l4.3,7.7l-1.3,2.8l5.2,0.2l2.8,3l-0.2,4l2.3,0.7l-5.4,5l-2.8-2.4l-0.2,4l-2.3,0.5l-1-2.9l-6.4,2l-0.7,2.9
			l-4.1,2.1l-2.3-0.7l-4.1,0.4l2.1,5.9l-5.7-1.4l-5.1-1.9l-3.6,3.9l-2.7-3.6l-2.6,6.8l-5.2-0.8l-0.2,4l-9.2-0.9l0.2-5.2l-1.2,1.7
			l-7.9-3.2l-1.1-1.8l0,1.2l-7.9-3.8l-3.3-3l-1.8,1.7l-2.3-1.2l-3.6,3.9l0.2-4.6l-1.5-4.7l-4.6-1.3l-4.1,2.1l7.3-8.4l-4.5-3.1
			l-3.9-3.6l-2.7-5.3l-5.1-1.9l0.7-2.9l-2.1-5.3l4.7-2.1l0.7-4l5.8,0.2l0.7-2.3l-4.4-5.4l-5.7-2l-5.7-0.8l-2.1-4.7l-5.6-3.7
			l-4.7-11.7l5.3-3.2l4,1.9l0.7-3.4l4.6,1.3l3.1-5.1l3.5-2.2l4,0.7l6.7,4.3l4.3-7.3l3.9,2.5l3.6-3.3l2.8,3l3.8-7.9l-8.9-8.4l3-3.3
			l-2.7-3.6l4,0.7l-0.4-3.5l13.2,1.1l2.2,2.4L270-34l7.3,4.3l-3.2-7l4.7-1l3.7,8.2l2.5-5.1l4,1.3l1.9-3.4l-3.3-4.7l1.4-5.1l5.6,4.3
			l6.4-2.6l3.6-4.5l5.7,0.8l2.5-4.5l5,5.4l4.7-1.5l3.2-7.9l5.2,0.8l3.9,3.6l2.5-3.9L340.7-57.7"/>
	</g>
</g>
</svg>
